<svg width="448" height="512" viewBox="0 0 448 512" fill="none" xmlns="http://www.w3.org/2000/svg">
<path d="M415.22 177.62C396.69 151.15 371.23 134.45 341.64 129.34H341.61C307.12 123.36 255.47 138.5 224.01 153.11C192.55 138.5 141.06 123.34 106.37 129.34C76.7801 134.45 51.3201 151.15 32.7901 177.62C4.85009 217.5 -6.54991 280.12 3.73009 337.17C18.9701 421.69 69.9601 512 167.23 512C180.67 512 194.85 507.97 209.44 500.03C218.44 495.15 229.56 495.15 238.56 500.03C253.15 507.97 267.34 512 280.77 512C378.03 512 429.02 421.69 444.27 337.16C454.55 280.12 443.15 217.5 415.22 177.62V177.62ZM397.03 328.64C392.97 351.25 368.19 464 280.77 464C275.52 464 268.87 461.88 261.49 457.88C249.93 451.58 236.96 448.43 224 448.43C211.04 448.43 198.07 451.59 186.51 457.88C179.14 461.88 172.48 464 167.23 464C79.8101 464 55.0301 351.25 50.9701 328.66C42.9701 284.27 51.4701 234.63 72.0901 205.16C83.2801 189.18 97.5501 179.58 114.52 176.66C127.07 174.5 168.35 176.59 224 207.41C279.68 176.57 321 174.47 333.48 176.66C350.45 179.58 364.72 189.18 375.91 205.16C396.53 234.62 405.03 284.27 397.03 328.64ZM222.41 112C241.07 112 274.5 108.74 295.61 87.62C326.17 57.06 319.32 0.65 319.32 0.65C319.32 0.65 313.93 0 305.57 0C286.91 0 253.48 3.27 232.38 24.38C201.82 54.95 208.67 111.35 208.67 111.35C208.67 111.35 214.06 112 222.41 112Z" fill="black"/>
</svg>
