<svg width="576" height="512" viewBox="0 0 576 512" fill="none" xmlns="http://www.w3.org/2000/svg">
<g clip-path="url(#clip0_732_176)">
<path d="M272 240C272 244.243 273.686 248.313 276.686 251.314C279.687 254.314 283.757 256 288 256H304C308.243 256 312.313 254.314 315.314 251.314C318.314 248.313 320 244.243 320 240V208H400V256H448V192C448 183.513 444.629 175.374 438.627 169.373C432.626 163.371 424.487 160 416 160H320V96C320 70.5392 309.886 46.1212 291.882 28.1177C273.879 10.1143 249.461 0 224 0C198.539 0 174.121 10.1143 156.118 28.1177C138.114 46.1212 128 70.5392 128 96V160H32C23.5131 160 15.3737 163.371 9.37258 169.373C3.37142 175.374 0 183.513 0 192L0 448C0 456.487 3.37142 464.626 9.37258 470.627C15.3737 476.629 23.5131 480 32 480H160V432H48V208H128V240C128 244.243 129.686 248.313 132.686 251.314C135.687 254.314 139.757 256 144 256H160C164.243 256 168.313 254.314 171.314 251.314C174.314 248.313 176 244.243 176 240V208H272V240ZM176 160V96C176 83.2696 181.057 71.0606 190.059 62.0589C199.061 53.0571 211.27 48 224 48C236.73 48 248.939 53.0571 257.941 62.0589C266.943 71.0606 272 83.2696 272 96V160H176ZM544 288H224C215.513 288 207.374 291.371 201.373 297.373C195.371 303.374 192 311.513 192 320V480C192 488.487 195.371 496.626 201.373 502.627C207.374 508.629 215.513 512 224 512H544C552.487 512 560.626 508.629 566.627 502.627C572.629 496.626 576 488.487 576 480V320C576 311.513 572.629 303.374 566.627 297.373C560.626 291.371 552.487 288 544 288ZM432 336C432 348.73 426.943 360.939 417.941 369.941C408.939 378.943 396.73 384 384 384C371.27 384 359.061 378.943 350.059 369.941C341.057 360.939 336 348.73 336 336H432ZM528 464H240V336H288.3C289.87 383.4 324.1 425.12 371.37 431.19C384.923 432.969 398.7 431.837 411.781 427.869C424.863 423.901 436.947 417.188 447.228 408.179C457.509 399.17 465.75 388.072 471.401 375.625C477.053 363.179 479.984 349.67 480 336H528V464Z" fill="black"/>
</g>
<defs>
<clipPath id="clip0_732_176">
<rect width="576" height="512" fill="white"/>
</clipPath>
</defs>
</svg>
