<svg width="512" height="512" viewBox="0 0 512 512" fill="none" xmlns="http://www.w3.org/2000/svg">
<g clip-path="url(#clip0_731_151)">
<path d="M369.8 142.2C392.5 94.7 380.8 38.4 334.4 0C289.9 36.9 277.7 90 297 136.1C283 131.2 268.7 128 254.5 128C206.5 128 160.4 154.8 137.9 200.8L2.4 478.3C-0.599999 484.5 -0.899999 492.1 2.4 498.8C6.5 507.1 14.8 511.9 23.4 511.9C26.8 511.9 30.3 511.1 33.7 509.5L311.3 374C336.3 361.8 357.7 341.4 370.9 314.4C386.6 282.3 387.8 246.8 377 215.5C422.9 234.2 475.4 221.8 512.1 177.6C473.5 131.2 417.3 119.5 369.8 142.2V142.2ZM327.7 293.4C319.6 309.9 306.7 322.9 290.2 330.9L232.9 358.9L209 335C199.6 325.6 184.4 325.6 175.1 335C165.8 344.4 165.7 359.6 175.1 368.9L187.3 381.1L76.9 435.1L173 238.3L207 273C211.7 277.7 217.8 280 224 280C230.2 280 236.3 277.7 241 273C250.4 263.6 250.4 248.4 241 239.1L199.4 198.2C214.2 184.5 233.4 176.1 254.5 176.1C266.9 176.1 278.9 178.9 290.2 184.4C309.8 194 324.5 210.6 331.6 231.2C338.6 251.7 337.3 273.9 327.7 293.4Z" fill="black"/>
</g>
<defs>
<clipPath id="clip0_731_151">
<rect width="512" height="512" fill="white"/>
</clipPath>
</defs>
</svg>
