<svg width="512" height="512" viewBox="0 0 512 512" fill="none" xmlns="http://www.w3.org/2000/svg">
<g clip-path="url(#clip0_732_155)">
<path d="M352 176C355.165 176 358.258 175.062 360.889 173.304C363.52 171.545 365.571 169.047 366.782 166.123C367.993 163.199 368.31 159.982 367.693 156.879C367.075 153.775 365.551 150.924 363.314 148.686C361.076 146.449 358.225 144.925 355.122 144.307C352.018 143.69 348.801 144.007 345.877 145.218C342.954 146.429 340.455 148.48 338.697 151.111C336.938 153.742 336 156.835 336 160C336 164.243 337.686 168.313 340.686 171.314C343.687 174.314 347.757 176 352 176ZM256 144C259.165 144 262.258 143.062 264.889 141.304C267.52 139.545 269.571 137.047 270.782 134.123C271.993 131.199 272.31 127.982 271.693 124.879C271.075 121.775 269.551 118.924 267.314 116.686C265.076 114.449 262.225 112.925 259.122 112.307C256.018 111.69 252.801 112.007 249.877 113.218C246.954 114.429 244.455 116.48 242.697 119.111C240.938 121.742 240 124.835 240 128C240 132.243 241.686 136.313 244.686 139.314C247.687 142.314 251.757 144 256 144ZM160 176C163.165 176 166.258 175.062 168.889 173.304C171.52 171.545 173.571 169.047 174.782 166.123C175.993 163.199 176.31 159.982 175.693 156.879C175.075 153.775 173.551 150.924 171.314 148.686C169.076 146.449 166.225 144.925 163.122 144.307C160.018 143.69 156.801 144.007 153.877 145.218C150.954 146.429 148.455 148.48 146.697 151.111C144.938 153.742 144 156.835 144 160C144 164.243 145.686 168.313 148.686 171.314C151.687 174.314 155.757 176 160 176ZM512 288C511.975 276.497 509.449 265.137 504.597 254.708C499.745 244.278 492.683 235.028 483.9 227.6C484.354 227.145 484.756 226.642 485.1 226.1C492.107 214.796 495.869 201.783 495.975 188.484C496.081 175.185 492.526 162.114 485.7 150.7C442.3 78.7 352.19 32.1 256 32C159.9 32.1 69.6901 78.7 26.2901 150.7C19.4596 162.112 15.9024 175.184 16.0082 188.484C16.114 201.784 19.8789 214.798 26.8901 226.1C27.2592 226.624 27.66 227.125 28.0901 227.6C12.0365 241.196 2.03874 260.61 0.294803 281.575C-1.44913 302.539 5.20346 323.339 18.7901 339.4C23.1722 344.6 28.2149 349.206 33.7901 353.1C33.0901 355.9 32.0901 358.6 32.0901 361.6V396.3C32.098 418.496 40.919 439.781 56.614 455.476C72.3091 471.171 93.5939 479.992 115.79 480H396.39C418.582 479.976 439.859 471.15 455.552 455.459C471.245 439.768 480.074 418.492 480.1 396.3V361.6C480.1 358.6 479 355.9 478.4 353.1C488.781 345.709 497.245 335.946 503.09 324.622C508.934 313.299 511.989 300.743 512 288ZM67.3701 175.5C102.27 117.6 176.37 80.1 255.98 80C335.69 80.1 409.79 117.6 444.7 175.5C446.952 179.325 448.122 183.689 448.087 188.128C448.052 192.566 446.812 196.911 444.5 200.7C441.6 205.4 437.09 208.1 432.29 208.1H79.6701C74.8701 208.1 70.3701 205.4 67.4701 200.7C65.1961 196.894 63.9871 192.547 63.9695 188.114C63.9519 183.68 65.1264 179.324 67.3701 175.5ZM432 396.3C431.995 405.767 428.232 414.844 421.538 421.538C414.844 428.232 405.767 431.995 396.3 432H115.67C106.209 431.987 97.139 428.22 90.4516 421.527C83.7642 414.834 80.0054 405.761 80.0001 396.3V370.7H432V396.3ZM432 320H80.0001C71.5132 320 63.3738 316.629 57.3727 310.627C51.3715 304.626 48.0001 296.487 48.0001 288C48.0001 279.513 51.3715 271.374 57.3727 265.373C63.3738 259.371 71.5132 256 80.0001 256H224L320 304L416 256H432C440.487 256 448.626 259.371 454.628 265.373C460.629 271.374 464 279.513 464 288C464 296.487 460.629 304.626 454.628 310.627C448.626 316.629 440.487 320 432 320Z" fill="black"/>
</g>
<defs>
<clipPath id="clip0_732_155">
<rect width="512" height="512" fill="white"/>
</clipPath>
</defs>
</svg>
