<svg width="512" height="512" viewBox="0 0 512 512" fill="none" xmlns="http://www.w3.org/2000/svg">
<path d="M176 319.9C166.506 319.9 157.226 322.715 149.333 327.989C141.439 333.264 135.287 340.76 131.654 349.531C128.021 358.302 127.07 367.953 128.922 377.264C130.774 386.575 135.346 395.128 142.059 401.841C148.772 408.554 157.325 413.126 166.636 414.978C175.947 416.83 185.598 415.879 194.369 412.246C203.14 408.613 210.636 402.461 215.911 394.567C221.185 386.674 224 377.393 224 367.9C224 355.17 218.943 342.961 209.941 333.959C200.939 324.957 188.73 319.9 176 319.9V319.9ZM299.83 32H298.34C291.199 32.0958 284.292 34.5577 278.7 39L0 255.87V448C0 456.487 3.37142 464.626 9.37258 470.627C15.3737 476.629 23.5131 480 32 480H480C488.487 480 496.626 476.629 502.627 470.627C508.629 464.626 512 456.487 512 448V255.87C512 136.05 418 38.2 299.83 32ZM196.48 163.8C199.471 170.394 203.918 176.224 209.487 180.852C215.055 185.48 221.601 188.786 228.631 190.52C235.661 192.254 242.992 192.372 250.074 190.864C257.156 189.357 263.805 186.264 269.519 181.817C275.234 177.37 279.866 171.686 283.067 165.191C286.268 158.697 287.955 151.561 288.001 144.32C288.048 137.079 286.452 129.923 283.334 123.388C280.216 116.853 275.657 111.109 270 106.59L303.6 80.44C391.34 88.11 459.23 159.91 463.24 247.86H409.34C405.18 240.566 399.165 234.503 391.904 230.285C384.644 226.067 376.397 223.846 368 223.846C359.603 223.846 351.356 226.067 344.096 230.285C336.835 234.503 330.82 240.566 326.66 247.86H88.47L196.48 163.8ZM464 432H48V295.89H326.66C330.82 303.184 336.835 309.247 344.096 313.465C351.356 317.683 359.603 319.904 368 319.904C376.397 319.904 384.644 317.683 391.904 313.465C399.165 309.247 405.18 303.184 409.34 295.89H464V432Z" fill="black"/>
</svg>
