<svg width="576" height="512" viewBox="0 0 576 512" fill="none" xmlns="http://www.w3.org/2000/svg">
<g clip-path="url(#clip0_732_157)">
<path d="M296 464H232V346.78L408.74 170.05C424.26 154.53 413.27 128 391.32 128H24.68C2.73 128 -8.26 154.53 7.26 170.05L184 346.78V464H120C97.91 464 80 481.91 80 504C80 508.42 83.58 512 88 512H328C332.42 512 336 508.42 336 504C336 481.91 318.09 464 296 464ZM81.1 176H334.9L208 302.9L81.1 176ZM432 0C369.39 0 316.65 40.2 296.82 96H349.36C366.01 67.45 396.63 48 432 48C484.93 48 528 91.06 528 144C528 196.94 484.93 240 432 240C417.96 240 404.71 236.8 392.68 231.36L357.42 266.62C379.23 279.92 404.59 288 432 288C511.53 288 576 223.53 576 144C576 64.47 511.53 0 432 0Z" fill="black"/>
</g>
<defs>
<clipPath id="clip0_732_157">
<rect width="576" height="512" fill="white"/>
</clipPath>
</defs>
</svg>
