<svg width="512" height="512" viewBox="0 0 512 512" fill="none" xmlns="http://www.w3.org/2000/svg">
<g clip-path="url(#clip0_732_159)">
<path d="M441.79 0.32C439.72 0.12 437.22 0 434.75 0C422.65 0 411.02 2.82 400.62 8.01C397.09 7.51 393.51 7.26 389.9 7.26C382.63 7.26 375.38 8.31 368.37 10.38C359.161 13.0131 350.528 17.3515 342.92 23.17C333.75 23.59 324.81 25.62 316.29 29.24C307.39 33.25 299.52 38.64 292.91 45.1C283.711 46.6757 274.879 49.9226 266.85 54.68C259.25 58.98 252.53 64.64 246.94 71.29C238.25 73.64 230.01 77.54 222.54 82.87C217.53 86.4 213.69 91.11 209.73 95.67C204.94 89.99 200.23 84.28 194.79 78.85L152.63 36.7C143.62 27.69 128.2 32.36 125.7 44.85L98.51 180.72L37.03 242.18C-10.22 289.41 -12.12 364.32 30.52 413.64L91.22 475.61C118.61 502.99 156.81 516.02 196.63 510.91C225.88 507.16 252.52 492.01 273.38 471.16L331.21 413.35L467.14 386.17C479.64 383.67 484.31 368.26 475.29 359.25L433.13 317.1C427.81 311.78 422.24 306.82 416.51 302.14C420.12 298.74 424.12 295.79 427.06 291.68C432.35 284.28 436.19 276.13 438.55 267.64C445.547 261.802 451.438 254.753 455.94 246.83C460.54 239.09 463.63 230.64 465.18 221.92C471.682 215.404 476.951 207.764 480.73 199.37C484.7 190.55 486.92 181.25 487.41 171.92C493.159 164.532 497.523 156.163 500.29 147.22C503.326 136.944 504.214 126.154 502.9 115.52C508.295 105.343 511.347 94.0885 511.83 82.58L511.87 81.58V80.58C514.27 39.48 483.53 3.97 441.79 0.32V0.32ZM64.38 379.79C40.31 349.17 42.68 304.21 70.88 276.01L142.61 204.31L160.94 112.67C206.9 158.61 223.21 214.76 209.89 267.9C176.1 279.91 144.41 299.79 117.12 327.07L64.38 379.79V379.79ZM307.62 369.26L235.89 440.96C205.51 471.33 155.45 472.14 125.07 441.77L97.57 414.28L150.96 360.91C188.88 323 237.02 302.52 284.44 302.52C325.65 302.52 366.32 317.99 399.28 350.94L307.62 369.26ZM447.95 105.4C454.4 112.53 457.38 122.87 454.4 132.98C451.4 142.63 443.81 149.76 434.85 152.51C439.9 160.33 441.06 170.44 436.92 179.63C432.78 188.82 424.5 194.57 415.31 196.18C419.45 204.45 419.22 214.56 414.17 223.07C409.33 231.58 400.6 236.63 391.4 237.32C394.62 245.82 393.7 255.7 387.96 263.75C383.84 269.52 377.91 272.52 371.67 274.19C344.48 261.54 314.93 254.66 284.45 254.66C276.54 254.66 268.66 255.13 260.83 255.98C265.67 217.02 258.47 177.42 239.54 140.36C240.9 133.17 244.2 126.37 250.47 121.95C259.96 115.17 270.49 115.99 277.13 118.49C277.82 109.53 282.88 100.79 291.39 95.96C304.97 87.91 317.93 94.65 318.29 94.82C319.9 85.85 325.88 77.58 335.07 73.44C346.63 68.54 356.9 72.31 362.2 75.74C364.96 66.55 372.31 59.2 381.97 56.44C384.55 55.68 397.98 52.13 409.56 63.33C432.93 18.65 494.96 81.28 447.95 105.4V105.4Z" fill="black"/>
</g>
<defs>
<clipPath id="clip0_732_159">
<rect width="512" height="512" fill="white"/>
</clipPath>
</defs>
</svg>
