<svg width="512" height="512" viewBox="0 0 512 512" fill="none" xmlns="http://www.w3.org/2000/svg">
<g clip-path="url(#clip0_732_161)">
<path d="M507.72 168C494.025 132.135 467.965 102.344 434.24 83.9999C430.937 67.1374 421.636 52.0427 408.06 41.5099C372.815 14.6927 329.777 0.117378 285.49 -0.000141292C269.944 0.115086 254.465 2.05162 239.37 5.76986C224.839 -0.417068 208.681 -1.67107 193.37 2.19986C147.138 13.697 104.909 37.5674 71.2173 71.2489C37.5252 104.93 13.6416 147.151 2.1299 193.38C-1.59578 208.531 -0.369162 224.477 5.6299 238.88C-1.23083 267.839 -1.58478 297.959 4.59353 327.071C10.7718 356.183 23.3287 383.563 41.3599 407.24C51.6802 420.535 66.3881 429.732 82.8599 433.19C101.321 467.457 131.522 493.916 167.92 507.71C214.71 525.42 263.26 485.71 255.03 436.31L239.18 341.24C240.716 339.415 242.158 337.512 243.5 335.54C261.659 334.754 278.867 327.202 291.74 314.37L314.38 291.75C327.32 278.81 334.16 261.8 335.23 244.17C337.53 242.692 339.741 241.079 341.85 239.34L436.3 255.08C486.12 263.38 525.32 214.36 507.72 168V168ZM111.81 382.26C100.3 391.26 86.0199 386.65 79.5299 378.14C57.6799 349.5 47.6699 314.89 48.6899 280.2C49.7899 280.59 50.7499 281.2 51.8699 281.53L187.15 323.14L111.81 382.26ZM184.94 462.84C164.839 455.127 147.348 441.854 134.51 424.57C136.911 423.188 139.228 421.665 141.45 420.01L196.45 376.85L207.68 444.2C208.156 447.139 207.852 450.151 206.798 452.935C205.745 455.72 203.978 458.179 201.676 460.066C199.373 461.953 196.616 463.203 193.679 463.69C190.741 464.176 187.728 463.883 184.94 462.84V462.84ZM280.43 257.84L257.81 280.46C254.524 283.746 250.404 286.075 245.893 287.196C241.383 288.316 236.652 288.186 232.21 286.82L65.9999 235.66C59.7393 233.736 54.4554 229.483 51.2368 223.779C48.0182 218.075 47.1102 211.354 48.6999 205C58.1118 167.22 77.6332 132.716 105.169 105.191C132.705 77.6654 167.217 58.1572 205 48.7599C211.343 47.1707 218.054 48.072 223.753 51.2786C229.452 54.4852 233.706 59.7533 235.64 65.9999L286.79 232.18C288.163 236.626 288.297 241.363 287.176 245.88C286.055 250.396 283.723 254.521 280.43 257.81V257.84ZM323.38 187.95L281.53 51.9499C281.14 50.7099 280.53 49.5899 280.11 48.3899C281.9 48.3099 283.69 48.0099 285.48 48.0099C319.259 48.0178 352.099 59.1319 378.94 79.6399C387.52 86.1799 392.02 100.49 383.06 111.91L323.38 187.95ZM444.2 207.74L377.56 196.64L420.82 141.52C422.379 139.42 423.818 137.233 425.13 134.97C442.139 147.772 455.206 165.098 462.84 184.97C463.89 187.76 464.189 190.777 463.705 193.718C463.222 196.66 461.973 199.422 460.085 201.729C458.197 204.036 455.735 205.805 452.947 206.86C450.159 207.915 447.142 208.219 444.2 207.74Z" fill="black"/>
</g>
<defs>
<clipPath id="clip0_732_161">
<rect width="512" height="512" fill="white"/>
</clipPath>
</defs>
</svg>
