<svg width="512" height="512" viewBox="0 0 512 512" fill="none" xmlns="http://www.w3.org/2000/svg">
<g clip-path="url(#clip0_732_163)">
<path d="M478.32 150.45C438.82 109.74 377.59 104.16 333.93 68.21C290.27 32.26 255.63 0 200.54 0C192.114 0.0271568 183.704 0.729404 175.39 2.1C88.6102 16.1 63.6802 82.1 50.3902 159.23C39.2902 223.57 -4.01979 286.23 0.390214 352.14C4.80021 418.05 53.2202 480.59 115.36 502.89C133 509.21 149.19 512 164.28 512C228.94 512 273.22 460.82 320 416.44C363.68 375 413.4 378.72 460.93 342.55C517.21 299.73 532.64 202 478.32 150.45V150.45ZM431.89 304.29C415.7 316.61 398.22 323 378 330.39C349.74 340.72 317.71 352.39 287 381.57C281.49 386.8 276 392.12 270.52 397.45C233.77 433.13 202.05 464 164.28 464C154.06 464 143.36 461.94 131.56 457.71C87.0902 441.7 51.2602 395 48.2002 349C46.2802 320 58.5102 287.6 71.4602 253.31C81.7602 226.03 92.4602 197.82 97.6502 167.46C111.48 87.34 133 57.6 183 49.54C188.791 48.5792 194.65 48.081 200.52 48.05C232.85 48.05 254.82 65.05 294.03 97.55L303.42 105.32C328.87 126.32 357.51 138.44 382.78 149.17C407.78 159.77 429.3 168.92 443.86 183.93L444.55 184.64L445.27 185.32C463.05 202.2 464.54 226.13 463.84 238.89C462.45 264.92 449.89 290.59 431.89 304.29V304.29ZM224 128.14C162.28 128.14 112 178.44 112 240.27C112 302.1 162.24 352.38 224 352.38C285.76 352.38 336 302.08 336 240.27C336 178.46 285.79 128.14 224 128.14ZM224 200.21C213.388 200.231 203.217 204.46 195.718 211.97C188.22 219.48 184.005 229.657 184 240.27C184 244.513 182.315 248.583 179.314 251.584C176.313 254.584 172.244 256.27 168 256.27C163.757 256.27 159.687 254.584 156.687 251.584C153.686 248.583 152 244.513 152 240.27C152.011 221.169 159.597 202.853 173.095 189.338C186.592 175.824 204.9 168.214 224 168.18C228.244 168.18 232.313 169.866 235.314 172.866C238.315 175.867 240 179.937 240 184.18C240 188.423 238.315 192.493 235.314 195.494C232.313 198.494 228.244 200.18 224 200.18V200.21Z" fill="black"/>
</g>
<defs>
<clipPath id="clip0_732_163">
<rect width="512" height="512" fill="white"/>
</clipPath>
</defs>
</svg>
