<svg width="448" height="512" viewBox="0 0 448 512" fill="none" xmlns="http://www.w3.org/2000/svg">
<path d="M352 63.9979H251.5C254.9 54.5979 259.97 45.8179 266.66 37.9579C272.22 31.4379 271.97 22.0479 266.04 16.0979L254.69 4.77792C251.57 1.61792 246.97 -0.362076 242.72 0.057924C238.34 0.197924 234.22 2.13792 231.41 5.35792C216.66 22.1579 206.86 42.4179 202.02 64.0079H96C42.98 64.0079 0 106.988 0 160.008V192.008C0 209.678 14.33 224.008 32 224.008V256.008C32 354.068 87.4 443.708 175.11 487.558L224 511.998L272.89 487.548C360.6 443.698 416 354.058 416 255.998V223.998C433.67 223.998 448 209.668 448 191.998V159.998C448 106.978 405.02 63.9979 352 63.9979ZM48 159.998C48 133.528 69.53 111.998 96 111.998H352C378.47 111.998 400 133.528 400 159.998V175.998H48V159.998ZM368 255.998C368 336.388 323.33 408.668 251.43 444.618L224 458.328L196.57 444.618C124.67 408.668 80 336.388 80 255.998V223.998H368V255.998Z" fill="black"/>
</svg>
