<svg width="512" height="512" viewBox="0 0 512 512" fill="none" xmlns="http://www.w3.org/2000/svg">
<g clip-path="url(#clip0_732_166)">
<path d="M456.54 143C494.92 79.36 478 27.4 458.54 2.90005C457.832 2.03854 456.95 1.33587 455.952 0.837803C454.955 0.339742 453.863 0.0574606 452.749 0.00934664C451.635 -0.0387674 450.523 0.148365 449.486 0.558555C448.449 0.968745 447.51 1.59279 446.73 2.39005L423.73 25.39C422.43 26.6828 421.62 28.3868 421.438 30.2108C421.255 32.0348 421.712 33.8655 422.73 35.39C430.03 46.29 441.59 73.58 417.67 115.17C393.826 102.613 367.289 96.0347 340.34 96C285.6 96 247.97 124.33 241.94 128.12C239.472 129.671 237.441 131.826 236.036 134.38C234.632 136.934 233.901 139.804 233.913 142.718C233.925 145.633 234.68 148.497 236.105 151.039C237.53 153.582 239.58 155.719 242.06 157.25C222.23 182 211.15 213 200.84 242.22C160.44 356.77 96.47 364.88 68.54 368.08C49.7533 368.966 32.0591 377.168 19.2417 390.932C6.4243 404.696 -0.498709 422.928 -0.0466832 441.731C0.405342 460.533 8.19651 478.412 21.6605 491.544C35.1245 504.675 53.1924 512.018 72 512C269.58 509 408.64 413 468.24 331.38L478.86 339.38C480.823 340.855 483.119 341.824 485.545 342.201C487.971 342.577 490.452 342.35 492.77 341.539C495.087 340.729 497.169 339.359 498.831 337.552C500.494 335.746 501.685 333.557 502.3 331.18C505.03 320.59 512 297.44 512 272.73C512.06 248.472 507.173 224.456 497.637 202.151C488.101 179.845 474.117 159.718 456.54 143V143ZM340.34 144C407.03 144 461.56 199.22 463.91 268L424.91 238.69C418.391 233.787 410.247 231.559 402.14 232.46L363.14 236.79L367.27 199.66C367.94 193.637 366.886 187.548 364.23 182.101C361.575 176.654 357.427 172.072 352.27 168.89L316.12 146.6C324.078 144.873 332.197 144.001 340.34 144V144ZM72 464C65.6348 464 59.5303 461.471 55.0295 456.971C50.5286 452.47 48 446.365 48 440C48 433.635 50.5286 427.53 55.0295 423.03C59.5303 418.529 65.6348 416 72 416C102.46 412.49 194.66 404.05 246.12 258.19C257.33 226.39 266.8 200.51 283.66 182.96L318.47 204.45L313.26 251.45C312.73 256.22 313.279 261.048 314.868 265.577C316.456 270.106 319.043 274.22 322.437 277.613C325.83 281.007 329.944 283.594 334.473 285.182C339.002 286.771 343.83 287.32 348.6 286.79L401.19 280.94L429.91 302.55C382.09 368.39 259.26 461.12 72 464Z" fill="black"/>
</g>
<defs>
<clipPath id="clip0_732_166">
<rect width="512" height="512" fill="white"/>
</clipPath>
</defs>
</svg>
