<svg width="576" height="512" viewBox="0 0 576 512" fill="none" xmlns="http://www.w3.org/2000/svg">
<path d="M494.59 104.28C455.6 67.1499 396.8 62.0699 352 88.9999V35.8099C352 29.7499 348.58 24.2099 343.16 21.4999L303.56 1.69991C295.19 -2.49009 285.02 1.37991 281.55 10.0699L254.85 76.8099C244.61 79.7999 234.83 84.1799 226 90.0399C180.97 61.7699 120.97 66.6199 81.41 104.29C28.91 154.28 0 220.94 0 292C0 363.06 28.91 429.72 81.41 479.73C119.07 515.53 177.03 522.26 222.5 496.03C224.66 494.8 227.41 494.95 229.91 496.42C247.06 506.75 266.62 512 288 512C309.38 512 328.94 506.75 346.09 496.42C348.62 494.95 351.37 494.8 353.5 496.03C398.94 522.26 456.91 515.55 494.59 479.72C547.09 429.72 576 363.06 576 292C576 220.94 547.09 154.28 494.59 104.28V104.28ZM288 468C166.76 468 163.8 116 288 116C409.24 116 412.2 468 288 468ZM48 292C48 213.93 113.15 84.8199 196.15 128.56C142.82 209.42 142.88 374.73 196.22 455.54C113.56 499.3 48 371.25 48 292ZM379.78 455.55C425.49 386.36 432.98 253.82 397.53 162.25C396.58 160.59 392.52 147.8 379.86 128.57C463.09 84.8199 528 213.66 528 292C528 370.38 462.33 499.34 379.78 455.55Z" fill="black"/>
</svg>
