<svg width="512" height="512" viewBox="0 0 512 512" fill="none" xmlns="http://www.w3.org/2000/svg">
<g clip-path="url(#clip0_732_170)">
<path d="M512 240C512 190.07 483 147.18 441.13 126.1C434.967 109.819 424.467 95.5341 410.767 84.7924C397.068 74.0508 380.691 67.2615 363.41 65.1598C350.63 63.0898 339.08 64.3798 326.72 67.7498C318.079 47.6175 303.723 30.4616 285.429 18.4062C267.136 6.35077 245.708 -0.074707 223.8 -0.074707C201.891 -0.074707 180.464 6.35077 162.171 18.4062C143.877 30.4616 129.521 47.6175 120.88 67.7498C103 62.8798 91.1899 63.9998 84.2099 65.1598C61.8271 67.8245 41.1085 78.3212 25.7206 94.7925C10.3328 111.264 1.26778 132.648 0.129892 155.16C-0.870108 171.16 4.23989 192.16 10.6899 204.3C19.6899 221.3 26.6299 239.2 29.7799 257.87C22.3899 259.68 15.3799 262.87 10.1399 268.58C6.55369 272.473 3.81349 277.067 2.09231 282.072C0.371122 287.077 -0.293674 292.385 0.139892 297.66C6.31989 370.56 51.4499 434.17 116.74 464C119.58 490.92 142.18 512 169.52 512H343.1C370.54 512 393.2 490.83 395.92 463.78C460.86 433.78 505.71 370.27 511.86 297.67C512.53 289.91 510.02 282.52 506.17 275.81C509.58 264.38 512 252.53 512 240V240ZM383.91 160C430 160 464 198.84 464 240C464 245.57 462.86 250.79 461.72 256H306.13C304.99 250.79 303.86 245.57 303.86 240C303.86 229.49 305.931 219.083 309.954 209.374C313.978 199.664 319.875 190.843 327.309 183.414C334.743 175.984 343.568 170.093 353.28 166.075C362.992 162.058 373.4 159.993 383.91 160V160ZM215.8 95.9998H231.8C233.922 95.9998 235.956 96.8427 237.457 98.343C238.957 99.8432 239.8 101.878 239.8 104V256H207.8V104C207.8 101.878 208.643 99.8432 210.143 98.343C211.643 96.8427 213.678 95.9998 215.8 95.9998ZM73.9999 165.66L85.3199 154.34C86.0629 153.596 86.9452 153.006 87.9164 152.603C88.8876 152.201 89.9286 151.994 90.9799 151.994C92.0312 151.994 93.0722 152.201 94.0434 152.603C95.0146 153.006 95.8969 153.596 96.6399 154.34L198.41 256H153.13L73.9999 177C73.2531 176.256 72.6605 175.373 72.2561 174.4C71.8517 173.427 71.6436 172.384 71.6436 171.33C71.6436 170.276 71.8517 169.233 72.2561 168.26C72.6605 167.287 73.2531 166.403 73.9999 165.66V165.66ZM364 425.05L348.19 430.78V458.28C348.19 461.44 345.9 464 343.09 464H169.52C166.71 464 164.43 461.44 164.43 458.28V430.88L148.52 425.19C95.7999 406.31 57.6999 359.42 49.1999 304H462.8C454.33 359.2 416.45 406.05 364 425.05V425.05Z" fill="black"/>
</g>
<defs>
<clipPath id="clip0_732_170">
<rect width="512" height="512" fill="white"/>
</clipPath>
</defs>
</svg>
