<svg width="512" height="512" viewBox="0 0 512 512" fill="none" xmlns="http://www.w3.org/2000/svg">
<path d="M436.4 32C345.4 32 268.1 99.9 241.7 193.4C204.6 134.6 144 96 75.6 96H0V120C0 247.9 91.7 352 204.4 352H232V464C232 472.8 239.2 480 248 480H264C272.8 480 280 472.8 280 464V288H307.6C420.3 288 512 183.9 512 56V32H436.4ZM204.4 304C125.1 304 59.3 234.2 49.3 144H75.5C154.8 144 220.6 213.8 230.6 304H204.4ZM307.6 240H281.4C291.4 149.8 357.2 80 436.5 80H462.7C452.7 170.2 386.9 240 307.6 240V240Z" fill="black"/>
</svg>
