<svg width="448" height="512" viewBox="0 0 448 512" fill="none" xmlns="http://www.w3.org/2000/svg">
<path d="M352 128C352 57.42 294.579 0 224 0C153.42 0 96 57.42 96 128H0V432C0 476.183 35.817 512 80 512H368C412.183 512 448 476.183 448 432V128H352ZM224 48C268.112 48 304 83.888 304 128H144C144 83.888 179.888 48 224 48ZM400 432C400 449.645 385.645 464 368 464H80C62.355 464 48 449.645 48 432V176H96V216C96 229.255 106.745 240 120 240C133.255 240 144 229.255 144 216V176H304V216C304 229.255 314.745 240 328 240C341.255 240 352 229.255 352 216V176H400V432Z" fill="black"/>
</svg>
