<svg width="576" height="512" viewBox="0 0 576 512" fill="none" xmlns="http://www.w3.org/2000/svg">
<path d="M564 192H491.098L362.286 40.4573C353.703 30.3583 338.557 29.1303 328.456 37.7143C318.357 46.2983 317.129 61.4453 325.714 71.5443L428.102 192H147.899L250.287 71.5433C258.871 61.4443 257.643 46.2973 247.544 37.7133C237.445 29.1293 222.298 30.3583 213.714 40.4563L84.901 192H12C5.373 192 0 197.373 0 204V228C0 234.627 5.373 240 12 240H30.667L58.251 438.603C61.546 462.334 81.836 480 105.794 480H470.206C494.164 480 514.454 462.334 517.75 438.603L545.333 240H564C570.627 240 576 234.627 576 228V204C576 197.373 570.627 192 564 192ZM470.206 432H105.794L79.127 240H496.872L470.206 432ZM312 296V376C312 389.255 301.255 400 288 400C274.745 400 264 389.255 264 376V296C264 282.745 274.745 272 288 272C301.255 272 312 282.745 312 296ZM424 296V376C424 389.255 413.255 400 400 400C386.745 400 376 389.255 376 376V296C376 282.745 386.745 272 400 272C413.255 272 424 282.745 424 296ZM200 296V376C200 389.255 189.255 400 176 400C162.745 400 152 389.255 152 376V296C152 282.745 162.745 272 176 272C189.255 272 200 282.745 200 296Z" fill="black"/>
</svg>
