<svg width="576" height="512" viewBox="0 0 576 512" fill="none" xmlns="http://www.w3.org/2000/svg">
<path d="M576 216V232C576 245.255 565.255 256 552 256H544L517.887 438.788C514.509 462.435 494.257 480 470.37 480H105.63C81.743 480 61.491 462.435 58.112 438.788L32 256H24C10.745 256 0 245.255 0 232V216C0 202.745 10.745 192 24 192H91.341L198.121 45.1789C208.516 30.8869 228.528 27.7259 242.822 38.1209C257.115 48.5159 260.275 68.5289 249.88 82.8219L170.477 192H405.523L326.12 82.8209C315.725 68.5289 318.886 48.5149 333.179 38.1199C347.47 27.7249 367.485 30.8849 377.88 45.1779L484.659 192H552C565.255 192 576 202.745 576 216ZM312 392V280C312 266.745 301.255 256 288 256C274.745 256 264 266.745 264 280V392C264 405.255 274.745 416 288 416C301.255 416 312 405.255 312 392ZM424 392V280C424 266.745 413.255 256 400 256C386.745 256 376 266.745 376 280V392C376 405.255 386.745 416 400 416C413.255 416 424 405.255 424 392ZM200 392V280C200 266.745 189.255 256 176 256C162.745 256 152 266.745 152 280V392C152 405.255 162.745 416 176 416C189.255 416 200 405.255 200 392Z" fill="black"/>
</svg>
