<svg width="512" height="512" viewBox="0 0 512 512" fill="none" xmlns="http://www.w3.org/2000/svg">
<g clip-path="url(#clip0_732_174)">
<path d="M460.88 152.46C457.72 149.3 463.08 152.33 479.06 137.48C505.62 108.61 513.81 62.3999 511.68 17.3299C510.75 -2.33014 487.66 0.0998581 481.05 0.0998581C446.76 0.0998581 404.11 6.51986 375.36 33.2599C356.82 51.8999 363.63 55.0799 359.1 50.5499L319.54 10.9599C313.28 4.69986 303.17 4.71986 296.94 10.9599L262.86 45.0599C250.27 57.6599 242.29 72.9699 238.15 89.0699C226.97 80.9099 217.79 90.1999 217.58 90.4199L183.89 124.13C171.31 136.72 163.32 152.03 159.19 168.12C148 159.96 138.84 169.26 138.62 169.48L104.75 203.37C67.2599 240.88 67.2599 301.72 104.75 339.24L121.7 356.2L7.02994 471.01C-2.34006 480.39 -2.34006 495.59 7.02994 504.96C11.7199 509.65 17.8299 512 23.9899 512C30.1499 512 36.2599 509.65 40.9499 504.96L155.63 390.16L172.56 407.12C210.02 444.64 270.78 444.66 308.26 407.12L342.31 373C347.95 367.35 348.21 358.66 343.66 352.4C359.74 348.26 375.03 340.27 387.62 327.66L421.29 293.93C426.93 288.28 427.19 279.59 422.64 273.34C438.71 269.2 453.99 261.21 466.57 248.61L500.42 214.7C506.66 208.45 506.66 198.32 500.42 192.07L460.88 152.46V152.46ZM166.9 310.93L155.61 322.24L138.66 305.27C119.92 286.51 119.89 256.12 138.66 237.34L149.93 226.06L166.88 243.03C175.95 252.1 180.94 264.16 180.94 277C180.94 289.82 175.95 301.87 166.9 310.93V310.93ZM296.77 79.0299L308.24 67.5499L325.19 84.5099C343.93 103.26 343.96 133.66 325.19 152.44L313.72 163.92L296.77 146.96C278.03 128.22 277.99 97.8199 296.77 79.0299V79.0299ZM217.8 158.1L228.88 147.01L245.83 163.97C264.57 182.72 264.61 213.1 245.84 231.9L234.75 243L217.8 226.04C199.06 207.28 199.03 176.89 217.8 158.1ZM274.33 373.17C255.59 391.95 225.23 391.96 206.48 373.17L189.54 356.2L201.08 344.65C219.88 325.89 250.17 326 268.85 344.71L285.79 361.68L274.33 373.17ZM353.69 293.72C334.95 312.5 304.59 312.51 285.84 293.72L268.9 276.75L279.98 265.65C298.73 246.87 329.08 246.86 347.83 265.65L364.77 282.62L353.69 293.72V293.72ZM432.64 214.66C413.89 233.44 383.54 233.45 364.79 214.66L347.85 197.69L359.11 186.41C377.86 167.63 408.21 167.62 426.96 186.41L443.9 203.38L432.64 214.66ZM389.99 122.03C391.59 102 396.73 80.4099 408.7 67.8099C420.23 57.5299 439.24 50.9899 463.29 48.8799C461.23 72.7099 454.91 91.8499 445.01 103.56C433.18 113.7 414.04 120.08 389.99 122.03V122.03Z" fill="black"/>
</g>
<defs>
<clipPath id="clip0_732_174">
<rect width="512" height="512" fill="white"/>
</clipPath>
</defs>
</svg>
